<mxfile host="65bd71144e">
    <diagram id="56aUZnFWoKFuOddUZJm8" name="Page-1">
        <mxGraphModel dx="907" dy="1005" grid="1" gridSize="10" guides="1" tooltips="1" connect="1" arrows="1" fold="1" page="0" pageScale="1" pageWidth="850" pageHeight="1100" math="0" shadow="0">
            <root>
                <mxCell id="0"/>
                <mxCell id="1" parent="0"/>
                <mxCell id="5" value="Identity" style="ellipse;whiteSpace=wrap;html=1;fillColor=none;" vertex="1" parent="1">
                    <mxGeometry x="420" y="10" width="120" height="80" as="geometry"/>
                </mxCell>
                <mxCell id="8" value="Order" style="ellipse;whiteSpace=wrap;html=1;fillColor=none;" vertex="1" parent="1">
                    <mxGeometry x="570" y="10" width="120" height="80" as="geometry"/>
                </mxCell>
                <mxCell id="9" value="Catalog" style="ellipse;whiteSpace=wrap;html=1;fillColor=none;" vertex="1" parent="1">
                    <mxGeometry x="570" y="110" width="120" height="80" as="geometry"/>
                </mxCell>
                <mxCell id="11" value="Printer" style="ellipse;whiteSpace=wrap;html=1;fillColor=none;" vertex="1" parent="1">
                    <mxGeometry x="500" y="200" width="120" height="80" as="geometry"/>
                </mxCell>
                <mxCell id="12" value="AuthN/AuthZ" style="ellipse;whiteSpace=wrap;html=1;fillColor=none;" vertex="1" parent="1">
                    <mxGeometry x="420" y="110" width="120" height="80" as="geometry"/>
                </mxCell>
                <mxCell id="18" value="&lt;h1 style=&quot;&quot;&gt;UseCases&lt;/h1&gt;&lt;p&gt;&lt;/p&gt;&lt;ul&gt;&lt;li style=&quot;&quot;&gt;createUser&lt;br&gt;&lt;/li&gt;&lt;li&gt;updateUser&lt;/li&gt;&lt;li&gt;resetPassword&lt;/li&gt;&lt;/ul&gt;&lt;div&gt;&lt;ul&gt;&lt;li&gt;authenticateUser&lt;/li&gt;&lt;/ul&gt;&lt;div&gt;&lt;ul&gt;&lt;li&gt;createProduct&lt;/li&gt;&lt;li&gt;updateProduct&lt;/li&gt;&lt;li&gt;deleteProduct&lt;br&gt;&lt;/li&gt;&lt;li&gt;findProductList&lt;/li&gt;&lt;li&gt;findProductById&lt;br&gt;&lt;br&gt;&lt;/li&gt;&lt;li&gt;placeOrder&lt;/li&gt;&lt;li&gt;printOrder&lt;br&gt;&lt;br&gt;&lt;/li&gt;&lt;li&gt;printObject&lt;/li&gt;&lt;/ul&gt;&lt;/div&gt;&lt;/div&gt;&lt;p&gt;&lt;/p&gt;" style="text;html=1;strokeColor=none;fillColor=none;spacing=5;spacingTop=-20;whiteSpace=wrap;overflow=hidden;rounded=0;" vertex="1" parent="1">
                    <mxGeometry x="190" y="-30" width="190" height="370" as="geometry"/>
                </mxCell>
                <mxCell id="20" value="Bounded Contexts" style="text;html=1;align=center;verticalAlign=middle;resizable=0;points=[];autosize=1;strokeColor=none;fillColor=none;" vertex="1" parent="1">
                    <mxGeometry x="490" y="-40" width="120" height="30" as="geometry"/>
                </mxCell>
            </root>
        </mxGraphModel>
    </diagram>
</mxfile>